<svg preserveAspectRatio="none" width="100%" height="100%" overflow="visible" style="display: block;" viewBox="0 0 32 32" fill="none" xmlns="http://www.w3.org/2000/svg">
<g id="Share">
<circle id="Ellipse 799" cx="16" cy="16" r="16" fill="var(--fill-0, white)" fill-opacity="0.1"/>
<path id="Vector" d="M17.4967 14.422V11.533C17.4967 11.3537 17.6481 11.2084 17.8348 11.2084C17.9244 11.2084 18.0105 11.2426 18.0739 11.3035L22.4189 15.4747C22.6355 15.6826 22.7571 15.9645 22.7571 16.2584C22.7571 16.5524 22.6355 16.8343 22.4189 17.0421L18.0739 21.2133C18.0105 21.2743 17.9244 21.3085 17.8348 21.3085C17.6481 21.3085 17.4967 21.1631 17.4967 20.9838V18.0948H14.6953C10.8015 18.0948 9.36682 21.3085 9.36682 21.3085V19.013C9.36682 16.4775 11.5079 14.422 14.149 14.422H17.4967Z" stroke="var(--stroke-0, white)" stroke-width="1.3" stroke-linecap="round" stroke-linejoin="round"/>
</g>
</svg>
