<svg preserveAspectRatio="none" width="100%" height="100%" overflow="visible" style="display: block;" viewBox="0 0 11.5001 14.7858" fill="none" xmlns="http://www.w3.org/2000/svg">
<g id="Group">
<path id="Vector" fill-rule="evenodd" clip-rule="evenodd" d="M1.16455 6.52242H1.42468L1.42916 4.11052C1.48305 2.97287 1.97725 1.9532 2.74326 1.21507L2.74929 1.20906C3.5297 0.460454 4.5895 0 5.75009 0C6.91281 0 7.97554 0.462007 8.75691 1.21507C9.53712 1.96736 10.0358 3.01187 10.0737 4.17533L10.0759 6.52242H10.3356C10.6565 6.52242 10.9493 6.65359 11.1588 6.86277L11.2151 6.92583C11.3923 7.13054 11.5001 7.3956 11.5001 7.68375V13.6244C11.5001 13.9444 11.3686 14.2364 11.1588 14.4454C10.9493 14.6546 10.6565 14.7858 10.3356 14.7858H1.16455C0.843707 14.7858 0.550885 14.6546 0.341337 14.4454C0.131595 14.2364 6.77109e-05 13.9444 6.77109e-05 13.6244V7.68375C6.77109e-05 7.36649 0.131011 7.07679 0.341337 6.86548C0.550885 6.65359 0.843707 6.52242 1.16455 6.52242ZM5.75009 8.63027C6.18047 8.63027 6.52932 8.97818 6.52932 9.40739C6.52932 9.74677 6.31141 10.0349 6.0075 10.1411L6.13961 10.7457L6.52932 12.5275H5.75009H4.97085L5.36056 10.7457L5.49267 10.1411C5.18876 10.0349 4.97085 9.74677 4.97085 9.40739C4.97085 8.97818 5.31971 8.63027 5.75009 8.63027ZM2.82147 6.52242H8.6787V4.19726C8.64951 3.41838 8.31272 2.71984 7.7905 2.21612C7.26226 1.7056 6.54256 1.39398 5.75009 1.39398C4.9582 1.39398 4.23889 1.70521 3.71337 2.21224C3.19407 2.71383 2.85883 3.4015 2.82089 4.16873L2.82147 6.52242Z" fill="var(--fill-0, #270852)"/>
</g>
</svg>
